<mxfile host="app.diagrams.net" agent="Mozilla/5.0 (Windows NT 10.0; Win64; x64; rv:139.0) Gecko/20100101 Firefox/139.0" version="27.1.6" pages="3">
  <diagram name="Page-1" id="EIn27vMcxsRnxcdijsf0">
    <mxGraphModel dx="1026" dy="650" grid="1" gridSize="10" guides="1" tooltips="1" connect="1" arrows="1" fold="1" page="1" pageScale="1" pageWidth="827" pageHeight="1169" math="0" shadow="0">
      <root>
        <mxCell id="0" />
        <mxCell id="1" parent="0" />
        <mxCell id="jaKSXrINU1FtUR0KfjQK-4" value="" style="edgeStyle=orthogonalEdgeStyle;rounded=0;orthogonalLoop=1;jettySize=auto;html=1;" parent="1" source="jaKSXrINU1FtUR0KfjQK-1" target="jaKSXrINU1FtUR0KfjQK-3" edge="1">
          <mxGeometry relative="1" as="geometry" />
        </mxCell>
        <mxCell id="jaKSXrINU1FtUR0KfjQK-1" value="&lt;font style=&quot;font-size: 21px;&quot;&gt;เริ่มต้น&lt;/font&gt;" style="rounded=1;whiteSpace=wrap;html=1;glass=0;" parent="1" vertex="1">
          <mxGeometry x="329" y="10" width="170" height="60" as="geometry" />
        </mxCell>
        <mxCell id="jaKSXrINU1FtUR0KfjQK-2" value="&lt;font style=&quot;font-size: 21px;&quot;&gt;สิ้นสุด&lt;/font&gt;" style="rounded=1;whiteSpace=wrap;html=1;glass=0;" parent="1" vertex="1">
          <mxGeometry x="329" y="1040" width="170" height="60" as="geometry" />
        </mxCell>
        <mxCell id="jaKSXrINU1FtUR0KfjQK-6" value="" style="edgeStyle=orthogonalEdgeStyle;rounded=0;orthogonalLoop=1;jettySize=auto;html=1;" parent="1" source="jaKSXrINU1FtUR0KfjQK-3" target="jaKSXrINU1FtUR0KfjQK-5" edge="1">
          <mxGeometry relative="1" as="geometry" />
        </mxCell>
        <mxCell id="jaKSXrINU1FtUR0KfjQK-3" value="&lt;div&gt;&lt;font style=&quot;font-size: 15px;&quot;&gt;[ 05:15 น. ]&lt;/font&gt;&lt;/div&gt;&lt;div&gt;&lt;font style=&quot;font-size: 15px;&quot;&gt;ตื่นนอน&lt;/font&gt;&lt;/div&gt;" style="rounded=0;whiteSpace=wrap;html=1;fontSize=16;" parent="1" vertex="1">
          <mxGeometry x="329" y="100" width="170" height="60" as="geometry" />
        </mxCell>
        <mxCell id="jaKSXrINU1FtUR0KfjQK-8" value="" style="edgeStyle=orthogonalEdgeStyle;rounded=0;orthogonalLoop=1;jettySize=auto;html=1;" parent="1" source="jaKSXrINU1FtUR0KfjQK-5" target="jaKSXrINU1FtUR0KfjQK-7" edge="1">
          <mxGeometry relative="1" as="geometry" />
        </mxCell>
        <mxCell id="jaKSXrINU1FtUR0KfjQK-5" value="&lt;div&gt;&lt;font style=&quot;font-size: 15px;&quot;&gt;[ 05:20 น. ]&lt;/font&gt;&lt;/div&gt;&lt;div&gt;&lt;font style=&quot;font-size: 15px;&quot;&gt;อาบน้ำ ทำความสะอาดร่างกาย&lt;/font&gt;&lt;/div&gt;" style="rounded=0;whiteSpace=wrap;html=1;" parent="1" vertex="1">
          <mxGeometry x="313" y="190" width="201" height="60" as="geometry" />
        </mxCell>
        <mxCell id="jaKSXrINU1FtUR0KfjQK-10" value="" style="edgeStyle=orthogonalEdgeStyle;rounded=0;orthogonalLoop=1;jettySize=auto;html=1;" parent="1" source="jaKSXrINU1FtUR0KfjQK-7" target="jaKSXrINU1FtUR0KfjQK-9" edge="1">
          <mxGeometry relative="1" as="geometry" />
        </mxCell>
        <mxCell id="jaKSXrINU1FtUR0KfjQK-7" value="&lt;div&gt;&lt;font style=&quot;font-size: 15px;&quot;&gt;[ 05:40 น. ]&lt;/font&gt;&lt;/div&gt;&lt;div&gt;&lt;font style=&quot;font-size: 15px;&quot;&gt;แต่งกาย&lt;/font&gt;&lt;/div&gt;" style="rounded=0;whiteSpace=wrap;html=1;" parent="1" vertex="1">
          <mxGeometry x="329" y="283" width="170" height="60" as="geometry" />
        </mxCell>
        <mxCell id="jaKSXrINU1FtUR0KfjQK-12" value="" style="edgeStyle=orthogonalEdgeStyle;rounded=0;orthogonalLoop=1;jettySize=auto;html=1;" parent="1" source="jaKSXrINU1FtUR0KfjQK-9" target="jaKSXrINU1FtUR0KfjQK-11" edge="1">
          <mxGeometry relative="1" as="geometry" />
        </mxCell>
        <mxCell id="jaKSXrINU1FtUR0KfjQK-9" value="&lt;div&gt;&lt;font style=&quot;font-size: 15px;&quot;&gt;[ 06:10 น. ]&lt;/font&gt;&lt;br&gt;&lt;/div&gt;&lt;div&gt;&lt;font style=&quot;font-size: 15px;&quot;&gt;ออกเดินทางจากบ้าน&lt;/font&gt;&lt;/div&gt;" style="rounded=0;whiteSpace=wrap;html=1;" parent="1" vertex="1">
          <mxGeometry x="329" y="374" width="170" height="60" as="geometry" />
        </mxCell>
        <mxCell id="jaKSXrINU1FtUR0KfjQK-14" value="" style="edgeStyle=orthogonalEdgeStyle;rounded=0;orthogonalLoop=1;jettySize=auto;html=1;" parent="1" source="jaKSXrINU1FtUR0KfjQK-11" target="jaKSXrINU1FtUR0KfjQK-13" edge="1">
          <mxGeometry relative="1" as="geometry" />
        </mxCell>
        <mxCell id="jaKSXrINU1FtUR0KfjQK-11" value="&lt;div&gt;&lt;font style=&quot;font-size: 15px;&quot;&gt;[ 06:20 น. ]&lt;/font&gt;&lt;/div&gt;&lt;div&gt;&lt;font style=&quot;font-size: 15px;&quot;&gt;ขึ้นรถตู้&lt;/font&gt;&lt;/div&gt;" style="rounded=0;whiteSpace=wrap;html=1;" parent="1" vertex="1">
          <mxGeometry x="329" y="466" width="170" height="60" as="geometry" />
        </mxCell>
        <mxCell id="jaKSXrINU1FtUR0KfjQK-16" value="" style="edgeStyle=orthogonalEdgeStyle;rounded=0;orthogonalLoop=1;jettySize=auto;html=1;" parent="1" source="jaKSXrINU1FtUR0KfjQK-13" target="jaKSXrINU1FtUR0KfjQK-15" edge="1">
          <mxGeometry relative="1" as="geometry" />
        </mxCell>
        <mxCell id="jaKSXrINU1FtUR0KfjQK-13" value="&lt;div&gt;&lt;font style=&quot;font-size: 15px;&quot;&gt;[ 06:30 น. ]&lt;/font&gt;&lt;/div&gt;&lt;div&gt;&lt;font style=&quot;font-size: 15px;&quot;&gt;&lt;br&gt;&lt;/font&gt;&lt;/div&gt;&lt;div&gt;&lt;font style=&quot;font-size: 14px;&quot;&gt;ถึงสถานีรถไฟฟ้า&lt;/font&gt;&lt;/div&gt;&lt;div&gt;&lt;font style=&quot;font-size: 14px;&quot;&gt;คลองบางไผ่&lt;/font&gt;&lt;/div&gt;" style="rounded=0;whiteSpace=wrap;html=1;" parent="1" vertex="1">
          <mxGeometry x="329" y="556" width="170" height="90" as="geometry" />
        </mxCell>
        <mxCell id="jaKSXrINU1FtUR0KfjQK-18" value="" style="edgeStyle=orthogonalEdgeStyle;rounded=0;orthogonalLoop=1;jettySize=auto;html=1;" parent="1" source="jaKSXrINU1FtUR0KfjQK-15" target="jaKSXrINU1FtUR0KfjQK-17" edge="1">
          <mxGeometry relative="1" as="geometry" />
        </mxCell>
        <mxCell id="jaKSXrINU1FtUR0KfjQK-15" value="&lt;div&gt;&lt;font style=&quot;font-size: 15px;&quot;&gt;[ 06:35 น. ]&lt;/font&gt;&lt;/div&gt;&lt;div&gt;&lt;font style=&quot;font-size: 14px;&quot;&gt;ขึ้นรถไฟฟ้า&lt;/font&gt;&lt;/div&gt;" style="rounded=0;whiteSpace=wrap;html=1;" parent="1" vertex="1">
          <mxGeometry x="329" y="675" width="170" height="50" as="geometry" />
        </mxCell>
        <mxCell id="jaKSXrINU1FtUR0KfjQK-20" value="" style="edgeStyle=orthogonalEdgeStyle;rounded=0;orthogonalLoop=1;jettySize=auto;html=1;" parent="1" source="jaKSXrINU1FtUR0KfjQK-17" target="jaKSXrINU1FtUR0KfjQK-19" edge="1">
          <mxGeometry relative="1" as="geometry" />
        </mxCell>
        <mxCell id="jaKSXrINU1FtUR0KfjQK-17" value="&lt;div&gt;&lt;font style=&quot;font-size: 15px;&quot;&gt;[ 07:05 น. ]&lt;/font&gt;&lt;/div&gt;&lt;div&gt;&lt;font style=&quot;font-size: 15px;&quot;&gt;&lt;br&gt;&lt;/font&gt;&lt;/div&gt;&lt;div&gt;&lt;font style=&quot;font-size: 15px;&quot;&gt;ถึงสถานีรถไฟฟ้า&lt;/font&gt;&lt;/div&gt;&lt;div&gt;&lt;font style=&quot;font-size: 15px;&quot;&gt;กระทรวงสาธารณะสุข&lt;/font&gt;&lt;/div&gt;" style="rounded=0;whiteSpace=wrap;html=1;" parent="1" vertex="1">
          <mxGeometry x="329" y="754" width="170" height="90" as="geometry" />
        </mxCell>
        <mxCell id="jaKSXrINU1FtUR0KfjQK-22" value="" style="edgeStyle=orthogonalEdgeStyle;rounded=0;orthogonalLoop=1;jettySize=auto;html=1;" parent="1" source="jaKSXrINU1FtUR0KfjQK-19" target="jaKSXrINU1FtUR0KfjQK-21" edge="1">
          <mxGeometry relative="1" as="geometry" />
        </mxCell>
        <mxCell id="jaKSXrINU1FtUR0KfjQK-19" value="&lt;div&gt;&lt;font style=&quot;font-size: 15px;&quot;&gt;[ 07:10 น. ]&lt;/font&gt;&lt;/div&gt;&lt;font style=&quot;font-size: 14px;&quot;&gt;ขึ้นรถโดยสารประจำทาง&lt;/font&gt;" style="rounded=0;whiteSpace=wrap;html=1;" parent="1" vertex="1">
          <mxGeometry x="329" y="870" width="170" height="60" as="geometry" />
        </mxCell>
        <mxCell id="jaKSXrINU1FtUR0KfjQK-23" value="" style="edgeStyle=orthogonalEdgeStyle;rounded=0;orthogonalLoop=1;jettySize=auto;html=1;" parent="1" source="jaKSXrINU1FtUR0KfjQK-21" target="jaKSXrINU1FtUR0KfjQK-2" edge="1">
          <mxGeometry relative="1" as="geometry" />
        </mxCell>
        <mxCell id="jaKSXrINU1FtUR0KfjQK-21" value="&lt;div&gt;&lt;font style=&quot;font-size: 15px;&quot;&gt;[ 07:30 น. ]&lt;/font&gt;&lt;/div&gt;&lt;font style=&quot;font-size: 15px;&quot;&gt;ถึงวิทยาลัยและลงชื่อเข้าเรียน&lt;/font&gt;" style="rounded=0;whiteSpace=wrap;html=1;" parent="1" vertex="1">
          <mxGeometry x="318.5" y="950" width="191" height="60" as="geometry" />
        </mxCell>
      </root>
    </mxGraphModel>
  </diagram>
  <diagram name="Page-2" id="vYyovUV8GIYRCg7zRmPb">
    <mxGraphModel dx="1026" dy="650" grid="1" gridSize="10" guides="1" tooltips="1" connect="1" arrows="1" fold="1" page="1" pageScale="1" pageWidth="827" pageHeight="1169" math="0" shadow="0">
      <root>
        <mxCell id="5_kDrdAMe0fBNxjDraS3-0" />
        <mxCell id="5_kDrdAMe0fBNxjDraS3-1" parent="5_kDrdAMe0fBNxjDraS3-0" />
        <mxCell id="5_kDrdAMe0fBNxjDraS3-2" value="" style="edgeStyle=orthogonalEdgeStyle;rounded=0;orthogonalLoop=1;jettySize=auto;html=1;" parent="5_kDrdAMe0fBNxjDraS3-1" source="5_kDrdAMe0fBNxjDraS3-3" target="5_kDrdAMe0fBNxjDraS3-6" edge="1">
          <mxGeometry relative="1" as="geometry" />
        </mxCell>
        <mxCell id="5_kDrdAMe0fBNxjDraS3-3" value="&lt;font style=&quot;font-size: 21px;&quot;&gt;เริ่มต้น&lt;/font&gt;" style="rounded=1;whiteSpace=wrap;html=1;glass=0;" parent="5_kDrdAMe0fBNxjDraS3-1" vertex="1">
          <mxGeometry x="329" y="10" width="170" height="60" as="geometry" />
        </mxCell>
        <mxCell id="5_kDrdAMe0fBNxjDraS3-4" value="&lt;font style=&quot;font-size: 21px;&quot;&gt;สิ้นสุด&lt;/font&gt;" style="rounded=1;whiteSpace=wrap;html=1;glass=0;" parent="5_kDrdAMe0fBNxjDraS3-1" vertex="1">
          <mxGeometry x="60.5" y="1079" width="170" height="60" as="geometry" />
        </mxCell>
        <mxCell id="5_kDrdAMe0fBNxjDraS3-5" value="" style="edgeStyle=orthogonalEdgeStyle;rounded=0;orthogonalLoop=1;jettySize=auto;html=1;" parent="5_kDrdAMe0fBNxjDraS3-1" source="5_kDrdAMe0fBNxjDraS3-6" target="5_kDrdAMe0fBNxjDraS3-8" edge="1">
          <mxGeometry relative="1" as="geometry" />
        </mxCell>
        <mxCell id="5_kDrdAMe0fBNxjDraS3-6" value="&lt;div&gt;&lt;font style=&quot;font-size: 15px;&quot;&gt;ตื่นนอน&lt;/font&gt;&lt;/div&gt;" style="rounded=0;whiteSpace=wrap;html=1;fontSize=16;" parent="5_kDrdAMe0fBNxjDraS3-1" vertex="1">
          <mxGeometry x="329" y="100" width="170" height="60" as="geometry" />
        </mxCell>
        <mxCell id="5_kDrdAMe0fBNxjDraS3-7" value="" style="edgeStyle=orthogonalEdgeStyle;rounded=0;orthogonalLoop=1;jettySize=auto;html=1;" parent="5_kDrdAMe0fBNxjDraS3-1" source="5_kDrdAMe0fBNxjDraS3-8" target="5_kDrdAMe0fBNxjDraS3-10" edge="1">
          <mxGeometry relative="1" as="geometry" />
        </mxCell>
        <mxCell id="5_kDrdAMe0fBNxjDraS3-8" value="&lt;div&gt;&lt;font style=&quot;font-size: 15px;&quot;&gt;อาบน้ำ ทำความสะอาดร่างกาย&lt;/font&gt;&lt;/div&gt;" style="rounded=0;whiteSpace=wrap;html=1;" parent="5_kDrdAMe0fBNxjDraS3-1" vertex="1">
          <mxGeometry x="313" y="190" width="201" height="60" as="geometry" />
        </mxCell>
        <mxCell id="5_kDrdAMe0fBNxjDraS3-9" value="" style="edgeStyle=orthogonalEdgeStyle;rounded=0;orthogonalLoop=1;jettySize=auto;html=1;" parent="5_kDrdAMe0fBNxjDraS3-1" source="5_kDrdAMe0fBNxjDraS3-10" target="5_kDrdAMe0fBNxjDraS3-12" edge="1">
          <mxGeometry relative="1" as="geometry" />
        </mxCell>
        <mxCell id="5_kDrdAMe0fBNxjDraS3-10" value="&lt;div&gt;&lt;font style=&quot;font-size: 15px;&quot;&gt;แต่งกาย&lt;/font&gt;&lt;/div&gt;" style="rounded=0;whiteSpace=wrap;html=1;" parent="5_kDrdAMe0fBNxjDraS3-1" vertex="1">
          <mxGeometry x="329" y="283" width="170" height="60" as="geometry" />
        </mxCell>
        <mxCell id="G8CrzxGCFOAdWJB_3D7h-0" value="" style="edgeStyle=orthogonalEdgeStyle;rounded=0;orthogonalLoop=1;jettySize=auto;html=1;" parent="5_kDrdAMe0fBNxjDraS3-1" source="5_kDrdAMe0fBNxjDraS3-12" target="g5BpYEVJvpElJ_0AjPPr-0" edge="1">
          <mxGeometry relative="1" as="geometry" />
        </mxCell>
        <mxCell id="5_kDrdAMe0fBNxjDraS3-12" value="&lt;div&gt;&lt;font style=&quot;font-size: 15px;&quot;&gt;ออกเดินทางจากบ้าน&lt;/font&gt;&lt;/div&gt;" style="rounded=0;whiteSpace=wrap;html=1;" parent="5_kDrdAMe0fBNxjDraS3-1" vertex="1">
          <mxGeometry x="329" y="374" width="170" height="60" as="geometry" />
        </mxCell>
        <mxCell id="5_kDrdAMe0fBNxjDraS3-13" value="" style="edgeStyle=orthogonalEdgeStyle;rounded=0;orthogonalLoop=1;jettySize=auto;html=1;" parent="5_kDrdAMe0fBNxjDraS3-1" source="5_kDrdAMe0fBNxjDraS3-14" target="5_kDrdAMe0fBNxjDraS3-16" edge="1">
          <mxGeometry relative="1" as="geometry" />
        </mxCell>
        <mxCell id="5_kDrdAMe0fBNxjDraS3-14" value="&lt;div&gt;&lt;font style=&quot;font-size: 15px;&quot;&gt;ขึ้นรถตู้&lt;/font&gt;&lt;/div&gt;" style="rounded=0;whiteSpace=wrap;html=1;" parent="5_kDrdAMe0fBNxjDraS3-1" vertex="1">
          <mxGeometry x="60.5" y="580" width="170" height="60" as="geometry" />
        </mxCell>
        <mxCell id="5_kDrdAMe0fBNxjDraS3-15" value="" style="edgeStyle=orthogonalEdgeStyle;rounded=0;orthogonalLoop=1;jettySize=auto;html=1;" parent="5_kDrdAMe0fBNxjDraS3-1" source="5_kDrdAMe0fBNxjDraS3-16" target="5_kDrdAMe0fBNxjDraS3-18" edge="1">
          <mxGeometry relative="1" as="geometry" />
        </mxCell>
        <mxCell id="5_kDrdAMe0fBNxjDraS3-16" value="&lt;div&gt;&lt;font style=&quot;font-size: 14px;&quot;&gt;ถึงสถานีรถไฟฟ้า&lt;/font&gt;&lt;/div&gt;&lt;div&gt;&lt;font style=&quot;font-size: 14px;&quot;&gt;คลองบางไผ่&lt;/font&gt;&lt;/div&gt;" style="rounded=0;whiteSpace=wrap;html=1;" parent="5_kDrdAMe0fBNxjDraS3-1" vertex="1">
          <mxGeometry x="60.5" y="670" width="170" height="60" as="geometry" />
        </mxCell>
        <mxCell id="5_kDrdAMe0fBNxjDraS3-17" value="" style="edgeStyle=orthogonalEdgeStyle;rounded=0;orthogonalLoop=1;jettySize=auto;html=1;" parent="5_kDrdAMe0fBNxjDraS3-1" source="5_kDrdAMe0fBNxjDraS3-18" target="5_kDrdAMe0fBNxjDraS3-20" edge="1">
          <mxGeometry relative="1" as="geometry" />
        </mxCell>
        <mxCell id="5_kDrdAMe0fBNxjDraS3-18" value="&lt;div&gt;&lt;font style=&quot;font-size: 14px;&quot;&gt;ขึ้นรถไฟฟ้า&lt;/font&gt;&lt;/div&gt;" style="rounded=0;whiteSpace=wrap;html=1;" parent="5_kDrdAMe0fBNxjDraS3-1" vertex="1">
          <mxGeometry x="60.5" y="759" width="170" height="50" as="geometry" />
        </mxCell>
        <mxCell id="5_kDrdAMe0fBNxjDraS3-19" value="" style="edgeStyle=orthogonalEdgeStyle;rounded=0;orthogonalLoop=1;jettySize=auto;html=1;" parent="5_kDrdAMe0fBNxjDraS3-1" source="5_kDrdAMe0fBNxjDraS3-20" target="5_kDrdAMe0fBNxjDraS3-22" edge="1">
          <mxGeometry relative="1" as="geometry" />
        </mxCell>
        <mxCell id="5_kDrdAMe0fBNxjDraS3-20" value="&lt;div&gt;&lt;font style=&quot;font-size: 15px;&quot;&gt;ถึงสถานีรถไฟฟ้า&lt;/font&gt;&lt;/div&gt;&lt;div&gt;&lt;font style=&quot;font-size: 15px;&quot;&gt;กระทรวงสาธารณะสุข&lt;/font&gt;&lt;/div&gt;" style="rounded=0;whiteSpace=wrap;html=1;" parent="5_kDrdAMe0fBNxjDraS3-1" vertex="1">
          <mxGeometry x="60.5" y="839" width="170" height="62" as="geometry" />
        </mxCell>
        <mxCell id="5_kDrdAMe0fBNxjDraS3-21" value="" style="edgeStyle=orthogonalEdgeStyle;rounded=0;orthogonalLoop=1;jettySize=auto;html=1;" parent="5_kDrdAMe0fBNxjDraS3-1" source="5_kDrdAMe0fBNxjDraS3-22" target="5_kDrdAMe0fBNxjDraS3-24" edge="1">
          <mxGeometry relative="1" as="geometry" />
        </mxCell>
        <mxCell id="5_kDrdAMe0fBNxjDraS3-22" value="&lt;div&gt;&lt;font style=&quot;font-size: 14px;&quot;&gt;ขึ้นรถโดยสารประจำทาง&lt;/font&gt;&lt;/div&gt;" style="rounded=0;whiteSpace=wrap;html=1;" parent="5_kDrdAMe0fBNxjDraS3-1" vertex="1">
          <mxGeometry x="60.5" y="920" width="170" height="46" as="geometry" />
        </mxCell>
        <mxCell id="5_kDrdAMe0fBNxjDraS3-23" value="" style="edgeStyle=orthogonalEdgeStyle;rounded=0;orthogonalLoop=1;jettySize=auto;html=1;" parent="5_kDrdAMe0fBNxjDraS3-1" source="5_kDrdAMe0fBNxjDraS3-24" target="5_kDrdAMe0fBNxjDraS3-4" edge="1">
          <mxGeometry relative="1" as="geometry" />
        </mxCell>
        <mxCell id="5_kDrdAMe0fBNxjDraS3-24" value="&lt;font style=&quot;font-size: 15px;&quot;&gt;ถึงวิทยาลัยและลงชื่อเข้าเรียน&lt;/font&gt;" style="rounded=0;whiteSpace=wrap;html=1;" parent="5_kDrdAMe0fBNxjDraS3-1" vertex="1">
          <mxGeometry x="50" y="1002" width="191" height="46" as="geometry" />
        </mxCell>
        <mxCell id="G8CrzxGCFOAdWJB_3D7h-1" style="edgeStyle=orthogonalEdgeStyle;rounded=0;orthogonalLoop=1;jettySize=auto;html=1;entryX=0.5;entryY=0;entryDx=0;entryDy=0;" parent="5_kDrdAMe0fBNxjDraS3-1" source="g5BpYEVJvpElJ_0AjPPr-0" target="5_kDrdAMe0fBNxjDraS3-14" edge="1">
          <mxGeometry relative="1" as="geometry" />
        </mxCell>
        <mxCell id="G8CrzxGCFOAdWJB_3D7h-4" style="edgeStyle=orthogonalEdgeStyle;rounded=0;orthogonalLoop=1;jettySize=auto;html=1;exitX=1;exitY=0.5;exitDx=0;exitDy=0;entryX=0.5;entryY=0;entryDx=0;entryDy=0;" parent="5_kDrdAMe0fBNxjDraS3-1" source="g5BpYEVJvpElJ_0AjPPr-0" target="G8CrzxGCFOAdWJB_3D7h-2" edge="1">
          <mxGeometry relative="1" as="geometry">
            <Array as="points">
              <mxPoint x="494" y="560" />
              <mxPoint x="580" y="560" />
            </Array>
          </mxGeometry>
        </mxCell>
        <mxCell id="g5BpYEVJvpElJ_0AjPPr-0" value="ตรจสอบว่ามีรถตู้หรือไม่" style="rhombus;whiteSpace=wrap;html=1;" parent="5_kDrdAMe0fBNxjDraS3-1" vertex="1">
          <mxGeometry x="334" y="470" width="160" height="80" as="geometry" />
        </mxCell>
        <mxCell id="G8CrzxGCFOAdWJB_3D7h-5" value="" style="edgeStyle=orthogonalEdgeStyle;rounded=0;orthogonalLoop=1;jettySize=auto;html=1;" parent="5_kDrdAMe0fBNxjDraS3-1" source="G8CrzxGCFOAdWJB_3D7h-2" target="G8CrzxGCFOAdWJB_3D7h-3" edge="1">
          <mxGeometry relative="1" as="geometry" />
        </mxCell>
        <mxCell id="G8CrzxGCFOAdWJB_3D7h-2" value="รอ 5 นาที" style="rounded=0;whiteSpace=wrap;html=1;" parent="5_kDrdAMe0fBNxjDraS3-1" vertex="1">
          <mxGeometry x="520" y="580" width="120" height="60" as="geometry" />
        </mxCell>
        <mxCell id="G8CrzxGCFOAdWJB_3D7h-10" value="" style="edgeStyle=orthogonalEdgeStyle;rounded=0;orthogonalLoop=1;jettySize=auto;html=1;" parent="5_kDrdAMe0fBNxjDraS3-1" source="G8CrzxGCFOAdWJB_3D7h-3" target="G8CrzxGCFOAdWJB_3D7h-7" edge="1">
          <mxGeometry relative="1" as="geometry" />
        </mxCell>
        <mxCell id="H3cu8Ukols_RwMQ8Rqu0-2" value="" style="edgeStyle=orthogonalEdgeStyle;rounded=0;orthogonalLoop=1;jettySize=auto;html=1;" parent="5_kDrdAMe0fBNxjDraS3-1" source="G8CrzxGCFOAdWJB_3D7h-3" target="H3cu8Ukols_RwMQ8Rqu0-1" edge="1">
          <mxGeometry relative="1" as="geometry" />
        </mxCell>
        <mxCell id="G8CrzxGCFOAdWJB_3D7h-3" value="&lt;div&gt;ตรวจสอบว่าถึง 06:45&lt;/div&gt;&lt;div&gt;แล้วหรือยัง&lt;/div&gt;" style="rhombus;whiteSpace=wrap;html=1;" parent="5_kDrdAMe0fBNxjDraS3-1" vertex="1">
          <mxGeometry x="500" y="661" width="160" height="80" as="geometry" />
        </mxCell>
        <mxCell id="IgYwcMS7y8OuvyDGGGe4-1" value="" style="edgeStyle=orthogonalEdgeStyle;rounded=0;orthogonalLoop=1;jettySize=auto;html=1;" parent="5_kDrdAMe0fBNxjDraS3-1" source="G8CrzxGCFOAdWJB_3D7h-7" target="IgYwcMS7y8OuvyDGGGe4-0" edge="1">
          <mxGeometry relative="1" as="geometry" />
        </mxCell>
        <mxCell id="G8CrzxGCFOAdWJB_3D7h-7" value="ขึ้นวินมอเตอร์ไซต์" style="whiteSpace=wrap;html=1;" parent="5_kDrdAMe0fBNxjDraS3-1" vertex="1">
          <mxGeometry x="350" y="670" width="120" height="60" as="geometry" />
        </mxCell>
        <mxCell id="IgYwcMS7y8OuvyDGGGe4-2" value="" style="edgeStyle=orthogonalEdgeStyle;rounded=0;orthogonalLoop=1;jettySize=auto;html=1;" parent="5_kDrdAMe0fBNxjDraS3-1" source="IgYwcMS7y8OuvyDGGGe4-0" target="5_kDrdAMe0fBNxjDraS3-16" edge="1">
          <mxGeometry relative="1" as="geometry" />
        </mxCell>
        <mxCell id="IgYwcMS7y8OuvyDGGGe4-0" value="" style="ellipse;whiteSpace=wrap;html=1;aspect=fixed;" parent="5_kDrdAMe0fBNxjDraS3-1" vertex="1">
          <mxGeometry x="273" y="681" width="40" height="40" as="geometry" />
        </mxCell>
        <mxCell id="H3cu8Ukols_RwMQ8Rqu0-3" value="" style="edgeStyle=orthogonalEdgeStyle;rounded=0;orthogonalLoop=1;jettySize=auto;html=1;" parent="5_kDrdAMe0fBNxjDraS3-1" source="H3cu8Ukols_RwMQ8Rqu0-1" target="g5BpYEVJvpElJ_0AjPPr-0" edge="1">
          <mxGeometry relative="1" as="geometry" />
        </mxCell>
        <mxCell id="H3cu8Ukols_RwMQ8Rqu0-1" value="" style="ellipse;whiteSpace=wrap;html=1;aspect=fixed;" parent="5_kDrdAMe0fBNxjDraS3-1" vertex="1">
          <mxGeometry x="730" y="490" width="40" height="40" as="geometry" />
        </mxCell>
      </root>
    </mxGraphModel>
  </diagram>
  <diagram id="0mvreM9ntgXtdc3AQ0Zq" name="Page-3">
    <mxGraphModel dx="1026" dy="650" grid="1" gridSize="10" guides="1" tooltips="1" connect="1" arrows="1" fold="1" page="1" pageScale="1" pageWidth="827" pageHeight="1169" math="0" shadow="0">
      <root>
        <mxCell id="0" />
        <mxCell id="1" parent="0" />
        <mxCell id="_R2sJMrorYlOz0dW0c9A-3" value="" style="edgeStyle=orthogonalEdgeStyle;rounded=0;orthogonalLoop=1;jettySize=auto;html=1;" parent="1" source="CYVORBRgGfYEqJ_tr4EV-1" target="_R2sJMrorYlOz0dW0c9A-2" edge="1">
          <mxGeometry relative="1" as="geometry" />
        </mxCell>
        <mxCell id="CYVORBRgGfYEqJ_tr4EV-1" value="&lt;font style=&quot;font-size: 21px;&quot;&gt;เริ่มต้น&lt;/font&gt;" style="rounded=1;whiteSpace=wrap;html=1;glass=0;" parent="1" vertex="1">
          <mxGeometry x="329" y="10" width="170" height="60" as="geometry" />
        </mxCell>
        <mxCell id="CYVORBRgGfYEqJ_tr4EV-2" value="&lt;font style=&quot;font-size: 21px;&quot;&gt;สิ้นสุด&lt;/font&gt;" style="rounded=1;whiteSpace=wrap;html=1;glass=0;" parent="1" vertex="1">
          <mxGeometry x="329" y="1090" width="170" height="60" as="geometry" />
        </mxCell>
        <mxCell id="_R2sJMrorYlOz0dW0c9A-8" value="" style="edgeStyle=orthogonalEdgeStyle;rounded=0;orthogonalLoop=1;jettySize=auto;html=1;" parent="1" source="_R2sJMrorYlOz0dW0c9A-2" target="_R2sJMrorYlOz0dW0c9A-4" edge="1">
          <mxGeometry relative="1" as="geometry" />
        </mxCell>
        <mxCell id="_R2sJMrorYlOz0dW0c9A-2" value="&lt;div&gt;พนักงาน&lt;/div&gt;&lt;div&gt;ยื่นใบลาออก&lt;/div&gt;" style="shape=parallelogram;perimeter=parallelogramPerimeter;whiteSpace=wrap;html=1;fixedSize=1;" parent="1" vertex="1">
          <mxGeometry x="346" y="100" width="136" height="60" as="geometry" />
        </mxCell>
        <mxCell id="_R2sJMrorYlOz0dW0c9A-13" style="edgeStyle=orthogonalEdgeStyle;rounded=0;orthogonalLoop=1;jettySize=auto;html=1;exitX=0;exitY=0.5;exitDx=0;exitDy=0;entryX=0.5;entryY=0;entryDx=0;entryDy=0;" parent="1" source="_R2sJMrorYlOz0dW0c9A-4" target="_R2sJMrorYlOz0dW0c9A-12" edge="1">
          <mxGeometry relative="1" as="geometry" />
        </mxCell>
        <mxCell id="_R2sJMrorYlOz0dW0c9A-15" value="" style="edgeStyle=orthogonalEdgeStyle;rounded=0;orthogonalLoop=1;jettySize=auto;html=1;" parent="1" source="_R2sJMrorYlOz0dW0c9A-4" target="_R2sJMrorYlOz0dW0c9A-14" edge="1">
          <mxGeometry relative="1" as="geometry" />
        </mxCell>
        <mxCell id="_R2sJMrorYlOz0dW0c9A-4" value="&lt;div&gt;ตรวจสอบว่า&lt;/div&gt;&lt;div&gt;ครบสัญญาหรือไม่&lt;/div&gt;" style="rhombus;whiteSpace=wrap;html=1;" parent="1" vertex="1">
          <mxGeometry x="344" y="180" width="140" height="90" as="geometry" />
        </mxCell>
        <mxCell id="_R2sJMrorYlOz0dW0c9A-10" value="" style="edgeStyle=orthogonalEdgeStyle;rounded=0;orthogonalLoop=1;jettySize=auto;html=1;" parent="1" source="_R2sJMrorYlOz0dW0c9A-9" target="CYVORBRgGfYEqJ_tr4EV-2" edge="1">
          <mxGeometry relative="1" as="geometry" />
        </mxCell>
        <mxCell id="_R2sJMrorYlOz0dW0c9A-9" value="" style="ellipse;whiteSpace=wrap;html=1;aspect=fixed;" parent="1" vertex="1">
          <mxGeometry x="389" y="1000" width="50" height="50" as="geometry" />
        </mxCell>
        <mxCell id="_R2sJMrorYlOz0dW0c9A-24" value="" style="edgeStyle=orthogonalEdgeStyle;rounded=0;orthogonalLoop=1;jettySize=auto;html=1;" parent="1" source="_R2sJMrorYlOz0dW0c9A-12" target="_R2sJMrorYlOz0dW0c9A-23" edge="1">
          <mxGeometry relative="1" as="geometry" />
        </mxCell>
        <mxCell id="_R2sJMrorYlOz0dW0c9A-27" value="" style="edgeStyle=orthogonalEdgeStyle;rounded=0;orthogonalLoop=1;jettySize=auto;html=1;" parent="1" source="_R2sJMrorYlOz0dW0c9A-12" target="_R2sJMrorYlOz0dW0c9A-26" edge="1">
          <mxGeometry relative="1" as="geometry" />
        </mxCell>
        <mxCell id="_R2sJMrorYlOz0dW0c9A-12" value="&lt;div&gt;ครวจสอบว่า&lt;/div&gt;&lt;div&gt;รายการลิขสิทธิ์&lt;/div&gt;&lt;div&gt;ทั้งหมดขอ&lt;/div&gt;" style="rhombus;whiteSpace=wrap;html=1;" parent="1" vertex="1">
          <mxGeometry x="150" y="260" width="140" height="90" as="geometry" />
        </mxCell>
        <mxCell id="_R2sJMrorYlOz0dW0c9A-17" value="" style="edgeStyle=orthogonalEdgeStyle;rounded=0;orthogonalLoop=1;jettySize=auto;html=1;" parent="1" source="_R2sJMrorYlOz0dW0c9A-14" target="_R2sJMrorYlOz0dW0c9A-16" edge="1">
          <mxGeometry relative="1" as="geometry" />
        </mxCell>
        <mxCell id="_R2sJMrorYlOz0dW0c9A-14" value="แจ้งพนักงานว่าไม่สามารถลาออกได้" style="rounded=0;whiteSpace=wrap;html=1;" parent="1" vertex="1">
          <mxGeometry x="530" y="275" width="120" height="60" as="geometry" />
        </mxCell>
        <mxCell id="_R2sJMrorYlOz0dW0c9A-20" value="" style="edgeStyle=orthogonalEdgeStyle;rounded=0;orthogonalLoop=1;jettySize=auto;html=1;" parent="1" source="_R2sJMrorYlOz0dW0c9A-16" target="_R2sJMrorYlOz0dW0c9A-19" edge="1">
          <mxGeometry relative="1" as="geometry" />
        </mxCell>
        <mxCell id="_R2sJMrorYlOz0dW0c9A-16" value="คืนใบลาออก" style="whiteSpace=wrap;html=1;rounded=0;" parent="1" vertex="1">
          <mxGeometry x="530" y="380" width="120" height="60" as="geometry" />
        </mxCell>
        <mxCell id="_R2sJMrorYlOz0dW0c9A-21" value="" style="edgeStyle=orthogonalEdgeStyle;rounded=0;orthogonalLoop=1;jettySize=auto;html=1;" parent="1" source="_R2sJMrorYlOz0dW0c9A-19" target="_R2sJMrorYlOz0dW0c9A-9" edge="1">
          <mxGeometry relative="1" as="geometry">
            <Array as="points">
              <mxPoint x="590" y="1025" />
            </Array>
          </mxGeometry>
        </mxCell>
        <mxCell id="_R2sJMrorYlOz0dW0c9A-19" value="" style="ellipse;whiteSpace=wrap;html=1;aspect=fixed;" parent="1" vertex="1">
          <mxGeometry x="565" y="490" width="50" height="50" as="geometry" />
        </mxCell>
        <mxCell id="_R2sJMrorYlOz0dW0c9A-29" value="" style="edgeStyle=orthogonalEdgeStyle;rounded=0;orthogonalLoop=1;jettySize=auto;html=1;" parent="1" source="_R2sJMrorYlOz0dW0c9A-23" target="_R2sJMrorYlOz0dW0c9A-28" edge="1">
          <mxGeometry relative="1" as="geometry" />
        </mxCell>
        <mxCell id="_R2sJMrorYlOz0dW0c9A-31" value="" style="edgeStyle=orthogonalEdgeStyle;rounded=0;orthogonalLoop=1;jettySize=auto;html=1;" parent="1" source="_R2sJMrorYlOz0dW0c9A-23" target="_R2sJMrorYlOz0dW0c9A-28" edge="1">
          <mxGeometry relative="1" as="geometry" />
        </mxCell>
        <mxCell id="_R2sJMrorYlOz0dW0c9A-33" value="" style="edgeStyle=orthogonalEdgeStyle;rounded=0;orthogonalLoop=1;jettySize=auto;html=1;" parent="1" source="_R2sJMrorYlOz0dW0c9A-23" target="_R2sJMrorYlOz0dW0c9A-32" edge="1">
          <mxGeometry relative="1" as="geometry" />
        </mxCell>
        <mxCell id="_R2sJMrorYlOz0dW0c9A-23" value="&lt;div&gt;ตรวจสอบว่า&lt;/div&gt;&lt;div&gt;หนังสือการออก&lt;/div&gt;&lt;div&gt;ว่าต้องการทุกผลงาน&lt;/div&gt;&lt;div&gt;/ เพียงบางผลงาน&lt;/div&gt;" style="rhombus;whiteSpace=wrap;html=1;" parent="1" vertex="1">
          <mxGeometry x="34" y="390" width="170" height="140" as="geometry" />
        </mxCell>
        <mxCell id="_R2sJMrorYlOz0dW0c9A-48" style="edgeStyle=orthogonalEdgeStyle;rounded=0;orthogonalLoop=1;jettySize=auto;html=1;entryX=0.5;entryY=0;entryDx=0;entryDy=0;" parent="1" source="_R2sJMrorYlOz0dW0c9A-26" target="_R2sJMrorYlOz0dW0c9A-46" edge="1">
          <mxGeometry relative="1" as="geometry" />
        </mxCell>
        <mxCell id="_R2sJMrorYlOz0dW0c9A-26" value="" style="ellipse;whiteSpace=wrap;html=1;aspect=fixed;" parent="1" vertex="1">
          <mxGeometry x="279" y="390" width="50" height="50" as="geometry" />
        </mxCell>
        <mxCell id="_R2sJMrorYlOz0dW0c9A-39" value="" style="edgeStyle=orthogonalEdgeStyle;rounded=0;orthogonalLoop=1;jettySize=auto;html=1;" parent="1" source="_R2sJMrorYlOz0dW0c9A-28" target="_R2sJMrorYlOz0dW0c9A-38" edge="1">
          <mxGeometry relative="1" as="geometry" />
        </mxCell>
        <mxCell id="Kspsc0O-C-ATYU2eISyA-2" style="edgeStyle=orthogonalEdgeStyle;rounded=0;orthogonalLoop=1;jettySize=auto;html=1;exitX=1;exitY=0.5;exitDx=0;exitDy=0;entryX=0;entryY=0.5;entryDx=0;entryDy=0;" edge="1" parent="1" source="_R2sJMrorYlOz0dW0c9A-28" target="_R2sJMrorYlOz0dW0c9A-35">
          <mxGeometry relative="1" as="geometry" />
        </mxCell>
        <mxCell id="_R2sJMrorYlOz0dW0c9A-28" value="&lt;div&gt;ถอนออกจากสารบัญ&lt;/div&gt;&lt;div&gt;ขององค์กร&lt;/div&gt;" style="whiteSpace=wrap;html=1;" parent="1" vertex="1">
          <mxGeometry x="59" y="649" width="120" height="60" as="geometry" />
        </mxCell>
        <mxCell id="_R2sJMrorYlOz0dW0c9A-36" value="" style="edgeStyle=orthogonalEdgeStyle;rounded=0;orthogonalLoop=1;jettySize=auto;html=1;" parent="1" source="_R2sJMrorYlOz0dW0c9A-32" target="_R2sJMrorYlOz0dW0c9A-35" edge="1">
          <mxGeometry relative="1" as="geometry" />
        </mxCell>
        <mxCell id="_R2sJMrorYlOz0dW0c9A-32" value="คัดชื่อผลงานที่ต้องคืน" style="rounded=0;whiteSpace=wrap;html=1;" parent="1" vertex="1">
          <mxGeometry x="173" y="570" width="120" height="60" as="geometry" />
        </mxCell>
        <mxCell id="Kspsc0O-C-ATYU2eISyA-4" style="edgeStyle=orthogonalEdgeStyle;rounded=0;orthogonalLoop=1;jettySize=auto;html=1;entryX=0;entryY=0.5;entryDx=0;entryDy=0;" edge="1" parent="1" source="_R2sJMrorYlOz0dW0c9A-35" target="_R2sJMrorYlOz0dW0c9A-40">
          <mxGeometry relative="1" as="geometry" />
        </mxCell>
        <mxCell id="_R2sJMrorYlOz0dW0c9A-35" value="" style="ellipse;whiteSpace=wrap;html=1;aspect=fixed;" parent="1" vertex="1">
          <mxGeometry x="208" y="654" width="50" height="50" as="geometry" />
        </mxCell>
        <mxCell id="Kspsc0O-C-ATYU2eISyA-3" style="edgeStyle=orthogonalEdgeStyle;rounded=0;orthogonalLoop=1;jettySize=auto;html=1;entryX=0;entryY=0.5;entryDx=0;entryDy=0;" edge="1" parent="1" source="_R2sJMrorYlOz0dW0c9A-38" target="Kspsc0O-C-ATYU2eISyA-1">
          <mxGeometry relative="1" as="geometry" />
        </mxCell>
        <mxCell id="_R2sJMrorYlOz0dW0c9A-38" value="&lt;div&gt;ส่งผลงานกลับคืน&lt;/div&gt;&lt;div&gt;ภายใน 7 - 14 วัน&lt;/div&gt;" style="whiteSpace=wrap;html=1;" parent="1" vertex="1">
          <mxGeometry x="59" y="737" width="120" height="60" as="geometry" />
        </mxCell>
        <mxCell id="_R2sJMrorYlOz0dW0c9A-50" value="" style="edgeStyle=orthogonalEdgeStyle;rounded=0;orthogonalLoop=1;jettySize=auto;html=1;exitX=0.5;exitY=1;exitDx=0;exitDy=0;" parent="1" source="_R2sJMrorYlOz0dW0c9A-40" target="_R2sJMrorYlOz0dW0c9A-49" edge="1">
          <mxGeometry relative="1" as="geometry" />
        </mxCell>
        <mxCell id="_R2sJMrorYlOz0dW0c9A-40" value="&lt;div&gt;ถ่ายสำเนา 2 ฉบับ&lt;/div&gt;&lt;div&gt;โดยแบ่งเป็น สี 1 ขาว - ดำ 1&lt;/div&gt;" style="rounded=0;whiteSpace=wrap;html=1;" parent="1" vertex="1">
          <mxGeometry x="341" y="570" width="146" height="60" as="geometry" />
        </mxCell>
        <mxCell id="_R2sJMrorYlOz0dW0c9A-47" value="" style="edgeStyle=orthogonalEdgeStyle;rounded=0;orthogonalLoop=1;jettySize=auto;html=1;" parent="1" source="_R2sJMrorYlOz0dW0c9A-46" target="_R2sJMrorYlOz0dW0c9A-40" edge="1">
          <mxGeometry relative="1" as="geometry" />
        </mxCell>
        <mxCell id="_R2sJMrorYlOz0dW0c9A-46" value="" style="ellipse;whiteSpace=wrap;html=1;aspect=fixed;" parent="1" vertex="1">
          <mxGeometry x="389" y="490" width="50" height="50" as="geometry" />
        </mxCell>
        <mxCell id="_R2sJMrorYlOz0dW0c9A-53" style="edgeStyle=orthogonalEdgeStyle;rounded=0;orthogonalLoop=1;jettySize=auto;html=1;entryX=0.5;entryY=0;entryDx=0;entryDy=0;" parent="1" source="_R2sJMrorYlOz0dW0c9A-49" target="_R2sJMrorYlOz0dW0c9A-9" edge="1">
          <mxGeometry relative="1" as="geometry" />
        </mxCell>
        <mxCell id="_R2sJMrorYlOz0dW0c9A-49" value="&lt;div&gt;ลงชื่อสำเนาถูกต้อง&lt;/div&gt;&lt;div&gt;และรับรองว่าเป็นความจริง&lt;/div&gt;" style="whiteSpace=wrap;html=1;rounded=0;" parent="1" vertex="1">
          <mxGeometry x="344" y="669" width="140" height="60" as="geometry" />
        </mxCell>
        <mxCell id="Kspsc0O-C-ATYU2eISyA-5" style="edgeStyle=orthogonalEdgeStyle;rounded=0;orthogonalLoop=1;jettySize=auto;html=1;exitX=1;exitY=0.5;exitDx=0;exitDy=0;entryX=0;entryY=0.5;entryDx=0;entryDy=0;" edge="1" parent="1" source="Kspsc0O-C-ATYU2eISyA-1" target="_R2sJMrorYlOz0dW0c9A-40">
          <mxGeometry relative="1" as="geometry" />
        </mxCell>
        <mxCell id="Kspsc0O-C-ATYU2eISyA-1" value="" style="ellipse;whiteSpace=wrap;html=1;aspect=fixed;" vertex="1" parent="1">
          <mxGeometry x="208" y="742" width="50" height="50" as="geometry" />
        </mxCell>
      </root>
    </mxGraphModel>
  </diagram>
</mxfile>
